<?xml version="1.0" standalone="no"?>
<!DOCTYPE svg PUBLIC "-//W3C//DTD SVG 20010904//EN"
 "http://www.w3.org/TR/2001/REC-SVG-20010904/DTD/svg10.dtd">
<svg version="1.0" xmlns="http://www.w3.org/2000/svg"
 width="1440.000000pt" height="1440.000000pt" viewBox="0 0 1440.000000 1440.000000"
 preserveAspectRatio="xMidYMid meet">
<metadata>
Created by potrace 1.11, written by Peter Selinger 2001-2013
</metadata>
<g transform="translate(0.000000,1440.000000) scale(0.100000,-0.100000)"
fill="#000000" stroke="none">
<path d="M7670 14386 c0 -8 4 -26 10 -41 20 -54 100 -409 165 -735 60 -302 75
-381 95 -525 33 -233 39 -282 60 -480 79 -757 93 -968 88 -1352 l-3 -253 -38
35 c-181 166 -342 249 -532 275 -74 10 -103 10 -165 -1 -64 -12 -76 -18 -90
-42 -13 -24 -13 -30 1 -54 l15 -28 110 4 c171 5 287 -28 431 -122 64 -43 209
-182 245 -237 17 -24 17 -23 17 57 1 45 5 84 10 87 15 10 99 -103 141 -189 48
-99 75 -181 101 -310 27 -127 22 -325 -11 -450 -12 -44 -24 -90 -27 -103 -12
-50 -82 -69 -107 -29 -13 19 -13 31 4 102 47 204 50 336 9 503 -30 127 -97
292 -117 292 -4 0 -13 -48 -20 -107 -16 -138 -51 -325 -62 -337 -6 -6 -13 1
-19 15 -11 31 -68 82 -113 103 -189 86 -487 51 -622 -74 -65 -60 -106 -148
-106 -227 1 -68 13 -93 60 -128 101 -75 276 -73 492 5 97 35 187 86 235 132
18 18 35 30 37 27 9 -9 -106 -444 -143 -540 -8 -23 -17 -27 -68 -31 -76 -7
-141 -37 -185 -86 -50 -56 -61 -97 -56 -211 5 -96 14 -130 89 -328 l24 -62
-18 -88 c-10 -48 -27 -124 -37 -168 -96 -397 -176 -771 -205 -960 -8 -55 -23
-140 -32 -190 -14 -82 -25 -248 -24 -384 0 -30 -4 -60 -10 -67 -17 -20 -24
-620 -10 -804 13 -169 29 -322 37 -358 4 -21 8 -23 49 -16 80 12 110 -1 191
-79 40 -40 100 -93 132 -118 76 -61 96 -103 89 -183 -7 -68 -33 -137 -91 -241
-107 -191 -167 -303 -178 -333 -7 -17 -15 -32 -18 -32 -4 0 -13 38 -20 85 -7
47 -16 85 -19 85 -3 0 -32 -51 -63 -113 -31 -62 -70 -125 -86 -141 l-30 -28
-243 10 c-273 11 -289 9 -289 -48 0 -52 23 -59 254 -70 114 -5 212 -12 218
-16 5 -3 36 -1 68 6 70 15 114 54 168 147 20 34 37 61 39 59 7 -7 48 -297 83
-589 20 -162 23 -188 41 -293 l11 -61 111 -6 c178 -11 349 -49 472 -107 218
-102 390 -274 492 -490 17 -36 34 -80 37 -97 4 -18 11 -35 16 -38 4 -3 25 29
45 71 48 97 135 215 228 307 77 77 87 85 157 132 25 16 47 33 50 36 10 12 140
78 178 90 20 6 42 15 47 19 6 4 26 11 45 15 19 4 55 13 80 21 72 21 317 47
384 41 287 -29 367 -49 536 -135 215 -110 362 -274 470 -527 26 -60 52 -186
64 -306 30 -298 -40 -564 -209 -798 -85 -116 -192 -227 -275 -281 -12 -8 -32
-22 -44 -30 -19 -15 -175 -92 -221 -110 -107 -44 -335 -80 -495 -80 -109 0
-292 23 -357 45 -24 8 -48 15 -54 15 -12 0 -50 16 -139 59 -122 58 -285 195
-372 312 -45 60 -89 140 -119 214 -15 38 -31 71 -36 72 -4 1 -20 -23 -35 -55
-32 -65 -37 -74 -97 -161 -95 -138 -326 -337 -433 -373 -18 -6 -38 -14 -43
-19 -21 -16 -133 -52 -245 -79 -19 -4 -86 -14 -147 -21 -103 -11 -113 -14
-113 -33 -1 -80 -115 -661 -197 -1001 -57 -238 -151 -608 -160 -631 -4 -12
554 -14 3566 -14 l3571 0 0 7195 0 7195 -3360 0 c-2912 0 -3360 -2 -3360 -14z
m1575 -1386 c47 -21 78 -47 143 -118 114 -126 136 -175 136 -312 1 -97 -1
-109 -29 -165 -45 -91 -108 -132 -265 -175 -120 -32 -193 -77 -222 -137 -24
-49 -56 -63 -122 -54 -39 5 -64 14 -73 26 -17 25 -17 129 1 163 30 57 99 107
216 158 182 78 278 198 268 333 -6 82 -16 91 -98 91 -73 0 -209 -31 -248 -56
-23 -15 -24 -20 -18 -84 7 -84 -4 -97 -86 -98 -48 -1 -60 2 -73 21 -23 33 -18
104 14 189 25 67 39 87 101 148 69 69 92 84 155 101 48 13 135 -1 200 -31z
m-354 -1120 c23 -13 49 -61 49 -93 0 -13 -13 -35 -28 -50 -35 -34 -83 -36
-113 -6 -18 18 -21 29 -16 73 9 73 54 105 108 76z m-1108 -1485 c52 -22 97
-63 97 -90 0 -50 -147 -136 -320 -187 -87 -26 -223 -28 -268 -4 -44 23 -48 38
-28 100 19 60 37 83 89 115 20 12 37 26 37 30 0 8 36 21 110 40 58 15 243 13
283 -4z m214 -127 c-3 -8 -6 -5 -6 6 -1 11 2 17 5 13 3 -3 4 -12 1 -19z m53
-681 c123 -41 262 -105 340 -158 61 -40 152 -130 201 -197 29 -39 33 -42 48
-27 24 21 35 19 105 -17 43 -23 98 -69 186 -158 69 -69 137 -138 150 -155 207
-249 309 -443 381 -720 20 -76 23 -115 24 -250 0 -175 -9 -224 -66 -361 -54
-129 -183 -274 -244 -274 -25 0 -55 33 -55 62 0 9 33 50 73 90 127 126 181
271 180 488 0 184 -38 336 -132 535 -90 187 -264 424 -420 568 -53 49 -126 97
-146 97 -8 0 44 -90 67 -116 36 -41 17 -84 -37 -84 -36 0 -59 22 -100 95 -68
120 -195 272 -279 332 -149 107 -516 229 -547 182 -14 -22 -76 -217 -89 -281
-6 -32 -15 -58 -20 -58 -12 0 -31 85 -37 165 -7 95 11 139 69 165 24 11 50 20
59 20 11 0 23 18 35 51 l19 51 65 -5 c36 -3 112 -21 170 -40z m-331 -541 c42
-102 47 -155 27 -287 -39 -262 -3 -420 127 -558 107 -113 137 -196 147 -401 6
-122 12 -167 29 -211 34 -90 115 -211 194 -291 9 -10 17 -21 17 -26 0 -4 15
-25 33 -47 31 -38 79 -149 69 -160 -3 -3 -15 -5 -28 -5 -16 0 -25 9 -33 30 -6
19 -22 36 -43 46 -106 48 -168 96 -168 131 0 24 -4 26 -55 27 -28 1 -30 4 -37
54 -4 29 -21 79 -38 112 -46 92 -71 206 -77 363 -6 154 -1 140 -119 309 -58
83 -108 178 -135 257 -22 63 -26 243 -8 351 6 36 12 108 13 160 3 98 32 249
45 233 4 -4 22 -44 40 -87z m1488 -1794 c34 -22 59 -134 73 -337 16 -215 -17
-430 -101 -674 -77 -222 -142 -357 -224 -467 -36 -47 -65 -87 -65 -88 0 -2 15
-19 33 -39 81 -85 87 -156 24 -279 -85 -163 -230 -415 -273 -473 -12 -16 -25
-39 -28 -51 -3 -11 -18 -32 -32 -45 -24 -23 -34 -24 -167 -28 -149 -3 -481 24
-504 42 -7 5 -13 22 -13 38 0 49 26 54 218 41 92 -6 213 -14 269 -17 l101 -6
40 58 c21 32 56 90 77 128 21 39 71 126 110 195 122 210 128 224 111 263 -13
32 -82 97 -156 147 -19 13 -62 48 -94 76 l-60 53 -49 -44 c-59 -54 -136 -98
-200 -115 -26 -7 -50 -16 -52 -20 -2 -4 6 -52 20 -106 80 -330 88 -394 52
-394 -44 0 -101 107 -123 230 -4 19 -19 82 -35 139 -16 58 -29 118 -29 135 0
65 62 120 160 141 40 9 99 47 170 110 54 48 97 63 132 44 13 -7 46 -31 73 -54
63 -54 111 -78 139 -71 68 17 251 398 307 641 36 155 42 217 41 405 -1 187 -4
215 -39 358 -11 44 55 89 94 64z m-229 -34 c7 -7 12 -27 12 -46 0 -50 -58
-105 -135 -127 -63 -19 -172 -35 -180 -27 -3 3 -5 29 -5 58 0 59 -1 58 93 69
43 5 71 16 115 45 60 42 81 47 100 28z"/>
<path d="M9378 12532 c-18 -37 -49 -81 -85 -116 -59 -58 -56 -68 13 -37 67 31
110 107 102 183 -3 29 -5 27 -30 -30z"/>
<path d="M6998 11226 c-118 -42 -252 -129 -346 -224 -117 -120 -179 -225 -245
-417 -30 -87 -31 -96 -32 -265 0 -172 1 -177 33 -276 53 -162 148 -306 296
-447 65 -61 176 -140 214 -152 34 -10 72 18 72 55 0 32 -17 53 -63 77 -129 66
-293 248 -367 408 -55 117 -74 200 -73 330 0 328 191 625 495 770 40 19 78 35
84 35 23 0 64 42 64 65 0 24 -35 65 -54 65 -6 0 -41 -11 -78 -24z"/>
<path d="M7786 10731 c-58 -64 -27 -191 48 -191 79 0 117 129 56 190 -26 26
-81 26 -104 1z"/>
<path d="M6913 10596 c-24 -21 -28 -31 -28 -79 0 -71 30 -110 84 -105 47 4 74
42 74 104 0 40 -4 51 -31 76 -39 34 -62 35 -99 4z"/>
<path d="M3674 9901 c-18 -11 -43 -34 -57 -53 -58 -76 -126 -316 -128 -447 -1
-65 10 -93 47 -117 48 -32 102 23 75 75 -8 15 -9 40 -1 88 32 208 87 363 130
363 23 0 50 26 50 49 0 50 -65 74 -116 42z"/>
<path d="M3987 9799 c-39 -22 -74 -144 -83 -289 -7 -93 -6 -96 21 -128 30 -36
73 -43 96 -16 10 12 10 27 2 67 -13 62 4 219 31 281 20 49 20 52 -4 76 -22 22
-36 24 -63 9z"/>
<path d="M6849 9347 c-26 -20 -29 -46 -13 -88 78 -192 -254 -546 -592 -630
-42 -10 -103 -19 -135 -19 -85 0 -123 -43 -83 -95 13 -18 26 -20 107 -19 171
2 364 82 538 222 208 169 324 383 290 535 -19 85 -69 127 -112 94z"/>
<path d="M4970 8931 c-70 -18 -138 -53 -183 -96 -84 -79 -85 -195 -2 -195 35
0 45 13 45 57 0 44 72 98 165 122 55 15 189 13 255 -3 170 -42 351 -135 490
-251 68 -57 104 -72 134 -56 27 15 35 35 27 68 -7 23 -141 128 -263 205 -43
26 -80 48 -83 48 -2 0 -30 12 -62 26 -194 89 -372 114 -523 75z"/>
<path d="M4614 8374 c-106 -71 -174 -171 -227 -334 -40 -122 -49 -169 -54
-282 -8 -148 16 -207 94 -232 17 -5 29 -1 48 18 28 28 25 48 -12 83 -19 18
-23 32 -23 75 1 117 61 341 117 437 38 65 97 125 143 146 45 20 59 51 41 91
-15 34 -75 33 -127 -2z"/>
<path d="M6996 8241 c-15 -16 -17 -30 -12 -78 13 -116 -36 -233 -149 -352
-123 -130 -324 -246 -540 -310 -22 -7 -60 -22 -85 -35 -44 -22 -50 -22 -265
-15 -237 7 -296 17 -412 70 -81 36 -164 114 -193 181 -18 43 -21 63 -17 122 3
39 9 85 12 103 6 24 2 36 -14 52 -104 104 -166 -184 -77 -356 26 -51 105 -130
169 -170 137 -86 280 -123 482 -124 86 0 119 -5 173 -25 l66 -24 56 21 c30 11
69 29 85 38 17 10 68 34 115 52 47 19 109 49 139 67 30 17 58 32 62 32 13 0
131 71 189 113 114 84 185 163 262 288 52 83 76 276 43 339 -19 36 -62 41 -89
11z"/>
<path d="M4419 7259 c-21 -21 -22 -28 -16 -158 36 -771 471 -1538 1118 -1970
95 -63 347 -198 434 -233 250 -98 296 -104 311 -42 10 41 -6 57 -92 86 -444
153 -776 371 -1057 697 -354 410 -565 925 -586 1429 -6 164 -6 164 -34 188
-35 30 -51 30 -78 3z"/>
<path d="M7258 5862 c-52 -30 -201 -135 -235 -165 -28 -25 -29 -48 -5 -70 35
-32 74 -18 199 71 83 59 122 77 127 59 2 -6 25 -129 50 -272 69 -383 65 -368
82 -354 8 6 14 15 14 20 0 5 26 53 58 106 91 153 138 268 126 305 -3 10 -29
37 -57 59 -29 22 -82 70 -119 105 -67 65 -68 65 -113 59 -43 -7 -45 -6 -45 18
0 43 -12 87 -24 86 -6 0 -32 -13 -58 -27z"/>
<path d="M6893 5620 c-49 -20 -55 -95 -22 -267 19 -102 32 -151 93 -353 34
-111 77 -148 119 -102 26 28 21 60 -33 235 -81 262 -98 361 -75 432 12 39 -38
72 -82 55z"/>
<path d="M5590 3783 c-100 -6 -253 -23 -390 -43 -313 -46 -356 -53 -366 -61
-8 -7 -9 -23 -2 -57 8 -43 22 -119 63 -347 18 -99 51 -284 71 -390 8 -44 23
-129 34 -190 10 -60 28 -162 40 -225 11 -63 27 -151 35 -195 8 -44 24 -129 35
-190 11 -60 26 -140 32 -177 12 -75 9 -74 93 -57 48 9 92 18 305 57 111 20
104 4 71 172 -53 264 -63 330 -51 344 6 8 33 20 60 26 28 7 50 16 50 21 0 5 8
9 18 9 9 0 28 6 42 13 14 8 50 26 80 42 71 37 215 131 260 170 143 125 199
192 260 311 91 178 93 373 6 522 -85 144 -244 221 -500 242 -71 5 -143 9 -160
8 -17 -1 -56 -3 -86 -5z m143 -469 c41 -27 57 -57 57 -107 0 -35 -30 -90 -63
-118 -28 -23 -119 -56 -178 -64 l-45 -7 -12 39 c-13 46 -45 218 -46 253 -1 23
3 26 54 31 97 12 190 1 233 -27z"/>
<path d="M7566 3779 c-66 -4 -136 -12 -155 -17 -177 -51 -246 -79 -339 -139
-71 -45 -73 -46 -163 -133 -236 -226 -344 -523 -310 -850 18 -171 63 -295 156
-425 74 -104 206 -216 325 -278 51 -26 175 -67 202 -67 13 0 29 -5 35 -11 15
-15 323 -23 408 -10 110 16 217 40 252 56 17 8 35 15 41 15 13 0 118 56 181
98 69 45 207 181 257 252 44 63 52 76 89 151 15 30 30 61 35 70 4 9 19 54 32
100 20 74 23 106 23 269 0 238 -22 333 -119 505 -42 74 -195 238 -251 268 -95
51 -201 98 -242 108 -27 6 -60 15 -75 21 -40 15 -247 24 -382 17z m224 -635
c64 -32 118 -83 145 -139 36 -73 38 -191 5 -278 -27 -72 -96 -146 -165 -179
-71 -33 -199 -33 -268 0 -68 32 -122 85 -155 151 -38 78 -38 190 1 273 38 85
122 158 217 189 40 14 181 3 220 -17z"/>
<path d="M7627 3002 c-13 -15 -17 -37 -16 -103 0 -74 25 -208 41 -224 9 -9 80
23 106 48 53 50 70 163 32 224 -34 57 -131 90 -163 55z"/>
<path d="M3836 3718 c-19 -174 -35 -311 -45 -388 -6 -47 -18 -139 -26 -205 -9
-66 -20 -158 -26 -205 -33 -280 -39 -328 -44 -358 -4 -19 -13 -86 -20 -150
-28 -228 -44 -353 -55 -409 -5 -31 -10 -71 -10 -89 l0 -32 138 -7 c75 -3 200
-11 277 -17 203 -15 386 -24 394 -18 4 3 13 57 19 120 18 166 39 340 46 375 4
17 13 89 21 160 8 72 23 204 35 295 11 91 27 217 35 280 8 63 24 185 35 270
25 189 50 382 50 391 0 3 -68 9 -152 13 -84 4 -195 11 -248 16 -52 5 -167 12
-256 15 l-161 7 -7 -64z"/>
<path d="M9710 3770 c-235 -43 -408 -132 -575 -297 -127 -125 -210 -270 -267
-463 -19 -65 -22 -99 -22 -255 0 -103 5 -197 11 -220 7 -22 18 -62 26 -90 13
-46 38 -102 80 -179 61 -112 222 -258 360 -326 133 -66 245 -91 427 -97 85 -3
187 0 225 5 94 13 229 43 235 52 3 4 19 10 35 14 93 22 236 116 344 226 101
102 136 149 189 251 81 155 112 285 112 464 0 124 -29 316 -51 339 -5 6 -9 18
-9 28 0 25 -82 179 -117 219 -137 159 -254 239 -419 289 -38 12 -82 26 -99 32
-37 13 -422 20 -485 8z m332 -633 c67 -33 109 -73 140 -136 19 -38 23 -62 23
-141 0 -84 -3 -102 -28 -153 -32 -65 -78 -114 -146 -154 -42 -26 -55 -28 -146
-28 -91 0 -104 2 -146 27 -151 91 -206 240 -147 401 30 81 111 163 194 194 82
31 178 27 256 -10z"/>
<path d="M9835 2996 c-53 -23 -93 -72 -101 -122 -14 -92 16 -153 91 -189 45
-21 83 -19 129 6 53 28 73 54 92 118 27 91 -8 169 -87 191 -46 13 -88 12 -124
-4z"/>
</g>
</svg>
